<svg height="496pt" viewBox="0 0 496 496.008" width="496pt" xmlns="http://www.w3.org/2000/svg"><path d="m208.003906 488c29.839844 0 54.238282-30 55.839844-67.839844h.082031c16.636719-7.839844 35.039063-12.160156 54.238281-12.160156h3.679688c52 0 98.800781 31.679688 118.160156 80zm0 0" fill="#b27946"/><path d="m384.003906 344h64c0 17.679688-7.199218 33.679688-18.71875 45.28125-11.601562 11.519531-27.601562 18.71875-45.28125 18.71875h-64c0-17.679688 7.199219-33.679688 18.71875-45.28125 11.601563-11.519531 27.601563-18.71875 45.28125-18.71875zm0 0" fill="#a0d468"/><path d="m256.003906 56c0 23.121094-16.320312 42.398438-38.078125 46.960938-3.203125-2.5625-6.480469-5.121094-9.921875-7.761719v-39.199219c0-26.480469 21.519532-48 48-48zm0 0" fill="#a0d468"/><g fill="#b4dd7f"><path d="m318.085938 320h-62.082032c-17.679687 0-33.679687-7.199219-45.28125-18.71875-11.519531-11.601562-18.71875-27.601562-18.71875-45.28125h64c28.238282 0 52.082032 18.238281 60.71875 43.519531v.082031c.5625 6.558594.960938 13.359376 1.363282 20.398438zm0 0"/><path d="m368.003906 192h64c0 17.679688-7.199218 33.679688-18.71875 45.28125-11.601562 11.519531-27.601562 18.71875-45.28125 18.71875h-56.800781c-1.117187-6.878906-2.480469-13.519531-4.078125-19.921875 8.398438-25.597656 32.480469-44.078125 60.878906-44.078125zm0 0"/><path d="m176.003906 72v48c0 26.480469-21.519531 48-48 48v-48c0-26.480469 21.519532-48 48-48zm0 0"/><path d="m176.003906 72h-32c-35.359375 0-64-28.640625-64-64h32c35.359375 0 64 28.640625 64 64zm0 0"/></g><path d="m288.003906 112c13.28125 0 24 10.71875 24 24s-10.71875 24-24 24c-1.679687 0-3.28125-.160156-4.878906-.480469-10.882812-2.238281-19.121094-11.917969-19.121094-23.519531 0-.640625 0-1.28125.160156-1.921875.878907-12.398437 11.199219-22.078125 23.839844-22.078125zm0 0" fill="#ff826e"/><path d="m296.242188 201.601562c-4.238282 4-9.917969 6.398438-16.238282 6.398438-13.28125 0-24-10.71875-24-24 0-3.679688.878906-7.199219 2.320313-10.320312 3.839843-8.078126 12.078125-13.679688 21.679687-13.679688 1.039063 0 2 .078125 3.039063.238281 11.839843 1.441407 20.960937 11.523438 20.960937 23.761719 0 6.960938-2.960937 13.28125-7.761718 17.601562zm0 0" fill="#ff826e"/><path d="m248.003906 128c6.160156 0 11.761719 2.320312 16 6.078125h.160156c-.160156.640625-.160156 1.28125-.160156 1.921875 0 11.601562 8.238282 21.28125 19.121094 23.519531l-.082031.71875c-1.039063-.160156-2-.238281-3.039063-.238281-9.601562 0-17.839844 5.601562-21.679687 13.679688-3.121094 1.519531-6.640625 2.320312-10.320313 2.320312-13.28125 0-24-10.71875-24-24s10.71875-24 24-24zm0 0" fill="#ff826e"/><path d="m154.484375 373.519531c1.917969 1.839844 3.601563 4 5.039063 6.160157-16.398438 15.519531-27.519532 5.039062-44.160157 21.679687-17.039062 16.960937-5.679687 28.320313-22.640625 45.28125-16.71875 16.640625-27.917968 6.078125-44.320312 21.679687-15.597656-22.480468-9.117188-58.160156 16.320312-83.601562 27.921875-27.917969 68.082032-32.957031 89.761719-11.199219zm0 0" fill="#cf9e76"/><path d="m159.523438 379.679688.082031.082031c-4.882813 10.636719-7.601563 23.039062-7.601563 36.238281 0 10.558594 1.761719 20.640625 5.039063 29.679688-3.679688 6.160156-8.238281 12.160156-13.757813 17.601562-16.242187 16.238281-36.5625 24.71875-55.042968 24.71875-13.277344 0-25.679688-4.398438-34.71875-13.519531-1.917969-1.921875-3.597657-4-5.121094-6.160157 16.402344-15.601562 27.601562-5.039062 44.320312-21.679687 16.960938-16.960937 5.601563-28.320313 22.640625-45.28125 16.640625-16.640625 27.761719-6.160156 44.160157-21.679687zm0 0" fill="#cf9e76"/><path d="m264.003906 416c0 1.441406 0 2.800781-.160156 4.160156-1.601562 37.839844-26 67.839844-55.839844 67.839844-2.71875 0-5.359375-.238281-8-.71875.320313-23.28125 16-23.519531 16-47.28125 0-24-16-24-16-48 0-23.761719 15.679688-24 16-47.28125 27.121094 4.960938 48 34.960938 48 71.28125zm0 0" fill="#d3a06c"/><path d="m159.765625 379.441406c9.679687-21.203125 27.679687-35.441406 48.238281-35.441406 2.71875 0 5.359375.238281 8 .71875-.320312 23.28125-16 23.519531-16 47.28125 0 24 16 24 16 48 0 23.761719-15.679687 24-16 47.28125-19.199218-3.519531-35.28125-19.601562-42.960937-41.601562-3.277344-9.039063-5.039063-19.121094-5.039063-29.679688 0-13.199219 2.71875-25.601562 7.601563-36.238281 0-.082031.078125-.242188.160156-.320313zm0 0" fill="#d3a06c"/><path d="m480.003906 480h16v16h-16zm0 0"/><path d="m.00390625 480h15.99999975v16h-15.99999975zm0 0"/><path d="m385.589844 415.921875c38.957031-.859375 70.414062-32.753906 70.414062-71.921875v-8h-72c-22.839844 0-43.183594 10.71875-56.382812 27.359375-.722656-38.632813-2.65625-71.078125-6.921875-99.359375h47.304687c39.695313 0 72-32.304688 72-72v-8h-72c-23.824218 0-45.449218 11.617188-58.6875 30.28125-1.214844-3.753906-2.519531-7.433594-3.894531-11.058594 4.070313-5.367187 6.582031-11.976562 6.582031-19.222656 0-7.886719-2.976562-15.015625-7.71875-20.601562 9.367188-5.589844 15.71875-15.71875 15.71875-27.398438 0-17.648438-14.351562-32-32-32-12.632812 0-23.480468 7.425781-28.679687 18.078125-3.160157-1.191406-6.519531-1.796875-9.945313-1.949219-4.925781-4.785156-10.207031-9.609375-15.878906-14.496094 18.230469-9.433593 30.503906-28.367187 30.503906-49.632812v-56h-8c-30.878906 0-56 25.121094-56 56v23.207031c-5.0625-3.703125-10.40625-7.496093-16-11.375v-3.832031h-.472656c-4-35.945312-34.535156-64-71.527344-64h-40v8c0 37.425781 28.710938 68.246094 65.257813 71.65625-10.609375 10.199219-17.257813 24.496094-17.257813 40.34375v56h8c30.878906 0 56-25.121094 56-56v-32.617188c18.816406 13.433594 34.175782 25.671876 47.144532 37.539063-9.054688 5.652344-15.144532 15.636719-15.144532 27.078125 0 17.648438 14.351563 32 32 32 0 17.648438 14.351563 32 32 32 4.328125 0 8.441406-.878906 12.207032-2.449219 5.730468 16.191407 9.847656 33.875 12.800781 53.738281-13.015625-12.105468-30.351563-19.289062-49.007813-19.289062h-72v8c0 39.695312 32.304688 72 72 72h54.519532c1.015624 21.65625 1.402343 45.65625 1.457031 72.335938-13.855469.625-27.34375 3.257812-40.289063 8.015624-3.085937-40.535156-30.464844-72.351562-63.6875-72.351562-20.160156 0-38.144531 11.742188-49.886718 30.007812-12.136719-10.929687-28.730469-15.734374-47.167969-13.449218-18.722657 2.335937-37.152344 11.753906-51.890625 26.496094-14.742188 14.746093-24.160156 33.167968-26.496094 51.890624-2.421875 19.375 2.953125 36.78125 15.121094 49.054688h-15.679688v16h55.808594c.085938 0 .175781.007812.273438.007812.0625 0 .125-.007812.183593-.007812h375.734375v-16h-18.808594c-12.527343-28.039062-33.65625-50.246094-59.605468-64.078125zm-1.585938-63.921875h55.433594c-3.898438 27.105469-27.265625 48-55.433594 48h-55.433594c3.898438-27.105469 27.265626-48 55.433594-48zm-16-152h55.433594c-3.898438 27.105469-27.265625 48-55.433594 48h-50.054687c-.753907-3.832031-1.554688-7.585938-2.410157-11.273438 8.082032-22.015624 28.839844-36.726562 52.464844-36.726562zm-80-80c8.824219 0 16 7.175781 16 16s-7.175781 16-16 16c-8.824218 0-16-7.175781-16-16s7.175782-16 16-16zm-72-64c0-19.320312 13.769532-35.480469 32-39.191406v39.191406c0 17.640625-11.777344 33.054688-28.375 38.128906-1.175781-.9375-2.410156-1.890625-3.625-2.832031zm-127.433594-40h23.433594c28.167969 0 51.535156 20.894531 55.433594 48h-23.433594c-28.167968 0-51.535156-20.894531-55.433594-48zm79.433594 104c0 19.320312-13.769531 35.480469-32 39.191406v-39.191406c0-19.320312 13.769532-35.480469 32-39.191406zm80 48c-8.824218 0-16-7.175781-16-16s7.175782-16 16-16c2.929688 0 5.761719.800781 8.230469 2.289062.503906 6.976563 3.21875 13.285157 7.488281 18.320313-4.382812 2.613281-8.085937 6.199219-10.796875 10.527344-1.585937.511719-3.21875.863281-4.921875.863281zm16 16c0-8.824219 7.175782-16 16-16 8.824219 0 16 7.175781 16 16s-7.175781 16-16 16c-8.824218 0-16-7.175781-16-16zm-8 128c-28.167968 0-51.535156-20.894531-55.433594-48h55.433594c23.902344 0 45.046875 15.113281 52.871094 37.625.273438 3.382812.511719 6.863281.746094 10.375zm0 104c0 34.871094-21.039062 63.273438-47.078125 63.9375 1.140625-4.554688 3.253907-7.785156 5.734375-11.503906 4.167969-6.25 9.34375-14.019532 9.34375-28.441406 0-14.425782-5.175781-22.191407-9.34375-28.441407-3.71875-5.582031-6.65625-9.992187-6.65625-19.574219 0-9.570312 2.9375-13.976562 6.65625-19.550781 2.929688-4.394531 6.328125-9.601562 8.105469-17.296875 19.261719 8.328125 33.238281 32.457032 33.238281 60.871094zm-48.929687-63.9375c-1.140625 4.546875-3.253907 7.777344-5.726563 11.488281-4.167968 6.242188-9.34375 14.007813-9.34375 28.425781 0 14.421876 5.175782 22.199219 9.34375 28.449219 3.71875 5.574219 6.65625 9.980469 6.65625 19.566407 0 9.582031-2.9375 13.992187-6.65625 19.566406-2.9375 4.402344-6.335937 9.609375-8.113281 17.3125-19.253906-8.328125-33.230469-32.457032-33.230469-60.871094 0-34.871094 21.03125-63.273438 47.070313-63.9375zm-58.839844 92.296875c-3.085937 4.738281-6.566406 9.242187-10.597656 13.273437-12.242188 12.238282-27.351563 20.03125-42.5625 21.933594-14.046875 1.738282-26.4375-1.824218-35.125-10 3.839843-2.183594 7.472656-2.941406 11.6875-3.78125 7.359375-1.472656 16.519531-3.304687 26.71875-13.503906 10.199219-10.203125 12.03125-19.359375 13.503906-26.722656 1.320313-6.574219 2.351563-11.765625 9.128906-18.542969 6.769531-6.769531 11.960938-7.808594 18.527344-9.121094 2.03125-.40625 4.214844-.863281 6.503906-1.488281-1.261719 6.28125-2.015625 12.824219-2.015625 19.59375 0 10 1.542969 19.527344 4.230469 28.359375zm-99.796875-11.429687c1.902344-15.210938 9.6875-30.320313 21.933594-42.5625 12.25-12.238282 27.351562-20.03125 42.5625-21.933594 14.039062-1.761719 26.445312 1.8125 35.132812 10.007812-3.847656 2.183594-7.476562 2.925782-11.679687 3.765625-7.359375 1.472657-16.511719 3.296875-26.710938 13.496094s-12.03125 19.359375-13.503906 26.722656c-1.320313 6.574219-2.351563 11.765625-9.128906 18.542969-6.773438 6.773438-11.96875 7.816406-18.542969 9.128906-5.039062 1.007813-10.96875 2.238282-17.480469 6.183594-2.710937-6.875-3.648437-14.800781-2.582031-23.351562zm87.292969 47.070312c4.640625-3.257812 9.082031-6.921875 13.21875-11.054688 2.328125-2.328124 4.4375-4.839843 6.519531-7.386718 3.933594 7.074218 8.785156 13.273437 14.296875 18.433594h-34.035156zm135.753906-54.3125c14.816406-6.328125 30.472656-9.6875 46.6875-9.6875h3.671875c44.976562 0 85.191406 24.785156 105.625 64h-181.226562c13.640624-12.769531 23.089843-32.128906 25.242187-54.3125zm0 0"/><path d="m352.003906 448h16v16h-16zm0 0"/><path d="m280.003906 448h16v16h-16zm0 0"/></svg>